<svg xmlns="http://www.w3.org/2000/svg" width="1920" height="1080" viewBox="0 0 1920 1080">
  <defs>
    <style>
      .cls-1 {
        font-size: 72px;
        font-family: Forte;
      }

      .cls-2, .cls-3 {
        fill: #bdb2a0;
      }

      .cls-2 {
        fill-rule: evenodd;
      }
    </style>
  </defs>
  <g id="Artboard_1" data-name="Artboard 1">
    <text id="Johan_Nielsen" data-name="Johan Nielsen" class="cls-1" x="172" y="593">Johan Nielsen</text>
    <g>
      <path class="cls-2" d="M502,235C54.139,510.89-465.886-116.754-385-107,670.728,20.31,130.8-205,838-205S2245.86-75.009,2116,22C1144,748.1,1029.72-90.088,502,235Z"/>
      <path class="cls-2" d="M1467,453c95.55,0,173,68.277,173,152.5S1558.55,540,1463,540s-169,149.723-169,65.5S1371.45,453,1467,453Z"/>
      <path class="cls-2" d="M1467,807c-95.55,0-173-68.277-173-152.5s81.45,65.5,177,65.5,169-149.723,169-65.5S1562.55,807,1467,807Z"/>
      <ellipse class="cls-3" cx="1467" cy="625.5" rx="26" ry="20.5"/>
    </g>
  </g>
</svg>
